<?xml version="1.0" encoding="utf-8"?>
<!-- Generator: Adobe Illustrator 23.0.1, SVG Export Plug-In . SVG Version: 6.00 Build 0)  -->
<svg version="1.1" id="图层_1" xmlns="http://www.w3.org/2000/svg" xmlns:xlink="http://www.w3.org/1999/xlink" x="0px" y="0px"
	 viewBox="0 0 18 15.3" style="enable-background:new 0 0 18 15.3;" xml:space="preserve">
<style type="text/css">
	.st0{fill:#7A8C99;}
</style>
<path class="st0" d="M2.7,5.6L2.7,5.6C1.2,5.6,0,6.9,0,8.4c0,1.2,0.8,2.3,2,2.6v4.3h1.5V11c1.2-0.3,2-1.4,2-2.6
	C5.5,6.9,4.2,5.6,2.7,5.6z M9.8,0H8.4v8.2h1.5V0z M3.5,0H2v4.7h1.5V0z M18,4.3c0-1.2-0.8-2.3-2-2.6l0,0V0h-1.5v1.7
	c-1.2,0.3-2,1.4-2,2.6c0,1.5,1.2,2.7,2.7,2.7C16.8,7.1,18,5.9,18,4.3C18,4.4,18,4.4,18,4.3L18,4.3C18,4.4,18,4.4,18,4.3z M9.1,9.1
	L9.1,9.1c-1.5,0-2.7,1.2-2.7,2.7c0,1.2,0.8,2.3,2,2.6v0.8h1.5v-0.8c1.2-0.3,2-1.4,2-2.6C11.8,10.3,10.6,9.1,9.1,9.1z M14.5,15.3H16
	V8h-1.5V15.3z"/>
</svg>
