<svg xmlns="http://www.w3.org/2000/svg" width="18" height="18" viewBox="0 0 18 18">
    <defs>
        <style>
            .cls-1{fill:none}.cls-2{clip-path:url(#clip-path)}.cls-3{fill:#7a8c99}
        </style>
        <clipPath id="clip-path">
            <path d="M0 0h18v18H0z" class="cls-1"/>
        </clipPath>
    </defs>
    <g id="Help-灰色2-18px" class="cls-2">
        <path id="路径_2672" d="M3232 1848a9 9 0 1 0 9 9 9 9 0 0 0-9-9zm-.125 15.9a1.219 1.219 0 1 1 0-2.438 1.219 1.219 0 1 1 0 2.438zm2.42-6.512c-1.128.655-1.447 1.1-1.447 1.964v.5h-2l-.009-.612a2.7 2.7 0 0 1 1.611-2.748c1.068-.646 1.43-1.111 1.43-1.964a1.628 1.628 0 0 0-1.81-1.576 1.765 1.765 0 0 0-1.895 1.749h-2.024c.069-2.024 1.473-3.506 4.031-3.506 2.361 0 3.937 1.361 3.937 3.256a3.262 3.262 0 0 1-1.819 2.935z" class="cls-3" data-name="路径 2672" transform="translate(-3223 -1848)"/>
    </g>
</svg>
