<svg xmlns="http://www.w3.org/2000/svg" width="25.818" height="16.025" viewBox="0 0 25.818 16.025">
    <defs>
        <style>
            .cls-1{fill:#329ed8}.cls-2{fill:#454545}
        </style>
    </defs>
    <g id="组_5539" data-name="组 5539" transform="translate(-366.957 2764.443)">
        <path id="路径_3254" d="M445.736-2763.85v-.593a8.013 8.013 0 0 0-8.013 8.011h5.045a2.968 2.968 0 0 1 2.968-2.967v-.593a3.56 3.56 0 0 1 3.561 3.56 3.561 3.561 0 0 1-3.561 3.563 3.549 3.549 0 0 1-2.695-1.236 8.6 8.6 0 0 1-1.928 3.475 7.392 7.392 0 0 0 4.623 1.618 7.419 7.419 0 0 0 7.419-7.42 7.419 7.419 0 0 0-7.419-7.418z" class="cls-1" data-name="路径 3254" transform="translate(-60.379)"/>
        <path id="路径_3255" d="M377.344-2752.984a2.967 2.967 0 0 1-2.967 2.969v.594a3.561 3.561 0 0 1-3.562-3.563 3.56 3.56 0 0 1 3.562-3.559 3.554 3.554 0 0 1 2.694 1.234 8.62 8.62 0 0 1 1.929-3.474 7.388 7.388 0 0 0-4.623-1.619 7.42 7.42 0 0 0-7.419 7.42 7.418 7.418 0 0 0 7.419 7.418v.594a8.013 8.013 0 0 0 8.012-8.014z" class="cls-2" data-name="路径 3255" transform="translate(0 -3.448)"/>
    </g>
</svg>
