<svg xmlns="http://www.w3.org/2000/svg" width="18" height="17.144" viewBox="0 0 18 17.144">
    <defs>
        <style>
            .cls-1{fill:none}.cls-2{clip-path:url(#clip-path)}.cls-3{fill:#7a8c99}
        </style>
        <clipPath id="clip-path">
            <path d="M0 0h18v17.144H0z" class="cls-1"/>
        </clipPath>
    </defs>
    <g id="Preferences-灰色2-18px" class="cls-2">
        <path id="路径_2392" d="M3381.337-196.622a.43.43 0 0 0-.325-.34 3.39 3.39 0 0 1-2.2-1.631 3.432 3.432 0 0 1-.305-2.728.43.43 0 0 0-.13-.452 8.9 8.9 0 0 0-2.923-1.7.427.427 0 0 0-.455.113 3.379 3.379 0 0 1-2.5 1.1 3.378 3.378 0 0 1-2.5-1.1.428.428 0 0 0-.455-.113 8.923 8.923 0 0 0-2.924 1.7.434.434 0 0 0-.129.453 3.429 3.429 0 0 1-.3 2.728 3.394 3.394 0 0 1-2.2 1.631.43.43 0 0 0-.325.34 9.209 9.209 0 0 0-.163 1.7 9.208 9.208 0 0 0 .163 1.7.43.43 0 0 0 .325.34 3.392 3.392 0 0 1 2.2 1.631 3.43 3.43 0 0 1 .3 2.728.437.437 0 0 0 .129.453 8.946 8.946 0 0 0 2.924 1.7.437.437 0 0 0 .141.024.427.427 0 0 0 .314-.137 3.378 3.378 0 0 1 2.5-1.1 3.379 3.379 0 0 1 2.5 1.1.427.427 0 0 0 .455.113 8.93 8.93 0 0 0 2.923-1.7.431.431 0 0 0 .13-.453 3.433 3.433 0 0 1 .305-2.729 3.391 3.391 0 0 1 2.2-1.631.43.43 0 0 0 .325-.34 9.271 9.271 0 0 0 .162-1.7 9.271 9.271 0 0 0-.162-1.7zm-8.838 4.482a2.785 2.785 0 0 1-2.785-2.785 2.785 2.785 0 0 1 2.785-2.785 2.784 2.784 0 0 1 2.784 2.785 2.784 2.784 0 0 1-2.783 2.786z" class="cls-3" data-name="路径 2392" transform="translate(-3363.499 203.496)"/>
    </g>
</svg>
