<?xml version="1.0" encoding="utf-8"?>
<!-- Generator: Adobe Illustrator 23.0.1, SVG Export Plug-In . SVG Version: 6.00 Build 0)  -->
<svg version="1.1" id="图层_1" xmlns="http://www.w3.org/2000/svg" xmlns:xlink="http://www.w3.org/1999/xlink" x="0px" y="0px"
	 viewBox="0 0 18 17.1" style="enable-background:new 0 0 18 17.1;" xml:space="preserve">
<style type="text/css">
	.st0{fill:#7A8C99;}
</style>
<g>
	<path class="st0" d="M6.1,17.1L6.1,17.1C6.2,17.1,6.2,17.2,6.1,17.1C6.2,17.2,6.2,17.1,6.1,17.1L6.1,17.1L6.1,17.1z"/>
	<path class="st0" d="M17.8,6.9c0-0.2-0.2-0.3-0.3-0.3c-0.9-0.2-1.7-0.8-2.2-1.6c-0.5-0.8-0.6-1.8-0.3-2.7c0.1-0.2,0-0.3-0.1-0.5
		C14,1,13,0.4,12,0c-0.2-0.1-0.3,0-0.5,0.1C10.9,0.8,10,1.2,9,1.2c-1,0-1.9-0.4-2.5-1.1C6.4,0,6.2,0,6,0C5,0.4,4,1,3.1,1.7
		C3,1.8,2.9,2,3,2.2c0.3,0.9,0.2,1.9-0.3,2.7C2.2,5.7,1.4,6.3,0.5,6.5c-0.2,0-0.3,0.2-0.3,0.3C0.1,7.4,0,8,0,8.6
		c0,0.6,0.1,1.1,0.2,1.7c0,0.2,0.2,0.3,0.3,0.3c0.9,0.2,1.7,0.8,2.2,1.6C3.2,13.1,3.3,14.1,3,15c0,0.2,0,0.3,0.1,0.5
		C4,16.2,5,16.8,6,17.1c0,0,0.1,0,0.1,0h0.1c0.1,0,0.2-0.1,0.3-0.1C7.1,16.3,8,15.9,9,15.9c1,0,1.9,0.4,2.5,1.1
		c0.1,0.1,0.3,0.2,0.5,0.1c1.1-0.4,2.1-1,2.9-1.7c0.1-0.1,0.2-0.3,0.1-0.5c-0.3-0.9-0.2-1.9,0.3-2.7c0.5-0.8,1.3-1.4,2.2-1.6
		c0.2,0,0.3-0.2,0.3-0.3C17.9,9.7,18,9.1,18,8.6C18,8,17.9,7.4,17.8,6.9z M11.8,8.6c0,1.5-1.2,2.8-2.8,2.8h0l0,0
		c-1.5,0-2.8-1.2-2.8-2.8S7.5,5.8,9,5.8C10.5,5.8,11.8,7,11.8,8.6L11.8,8.6z"/>
</g>
</svg>
