<svg xmlns="http://www.w3.org/2000/svg" width="17" height="14.805" viewBox="0 0 17 14.805">
    <defs>
        <style>
            .cls-1{fill:none}.cls-2{clip-path:url(#clip-path)}.cls-3{fill:#7a8c99}
        </style>
        <clipPath id="clip-path">
            <path d="M0 0h17v14.805H0z" class="cls-1"/>
        </clipPath>
    </defs>
    <g id="Realtime-灰色2-18px" class="cls-2">
        <path id="路径_3118" d="M3463.55-1153.889h-14.1a1.452 1.452 0 0 0-1.45 1.45v8.677a1.452 1.452 0 0 0 1.45 1.45h9.61l3.228 3.228v-3.228h1.261a1.452 1.452 0 0 0 1.45-1.45v-8.677a1.452 1.452 0 0 0-1.449-1.45zm-9.665 5.812a.654.654 0 0 1-.654.654.654.654 0 0 1-.654-.654.654.654 0 0 1 .654-.654.654.654 0 0 1 .654.654zm3.269 0a.654.654 0 0 1-.654.654.654.654 0 0 1-.654-.654.654.654 0 0 1 .654-.654.654.654 0 0 1 .654.654zm3.269 0a.654.654 0 0 1-.654.654.654.654 0 0 1-.654-.654.654.654 0 0 1 .654-.654.654.654 0 0 1 .654.654z" class="cls-3" data-name="路径 3118" transform="translate(-3448 1153.889)"/>
    </g>
</svg>
