<?xml version="1.0" encoding="utf-8"?>
<!-- Generator: Adobe Illustrator 23.0.1, SVG Export Plug-In . SVG Version: 6.00 Build 0)  -->
<svg version="1.1" id="图层_1" xmlns="http://www.w3.org/2000/svg" xmlns:xlink="http://www.w3.org/1999/xlink" x="0px" y="0px"
	 viewBox="0 0 18 14.3" style="enable-background:new 0 0 18 14.3;" xml:space="preserve">
<style type="text/css">
	.st0{fill:#7A8C99;}
</style>
<path class="st0" d="M17.8,12.7c-0.4-1.7-1.5-3.2-3-4.2l0,0c-0.6-0.4-1.4-0.7-2.1-0.8c1.6-0.6,2.6-2.1,2.6-3.7c0-2.2-1.8-4-4-4h0
	c-2.2,0-4,1.8-4,4v0c0,1.7,1,3.2,2.6,3.7c-3.1,0.7-5.4,3.4-5.3,6.6v0H18v0C18,13.8,17.9,13.2,17.8,12.7z M8.1,7.5L8.1,7.5L8.1,7.5
	c-1-1-1.5-2.2-1.5-3.6c0-0.3,0-0.5,0.1-0.8C6.3,3,5.8,2.9,5.3,2.9C3.6,2.9,2.2,4.3,2.2,6c0,1.3,0.8,2.5,2.1,3C1.8,9.5,0,11.8,0,14.3
	h3.9C3.9,11.4,5.5,8.8,8.1,7.5z"/>
</svg>
