<svg xmlns="http://www.w3.org/2000/svg" width="18" height="14.31" viewBox="0 0 18 14.31">
    <defs>
        <style>
            .cls-1{fill:none}.cls-2{clip-path:url(#clip-path)}.cls-3{fill:#7a8c99}
        </style>
        <clipPath id="clip-path">
            <path d="M0 0h18v14.31H0z" class="cls-1"/>
        </clipPath>
    </defs>
    <g id="Visitors-灰色2-18px" class="cls-2">
        <path id="路径_2669" d="M3555.2-717.151a6.585 6.585 0 0 0-2.1-.829 3.963 3.963 0 0 0 2.61-3.725 3.96 3.96 0 0 0-3.96-3.961 3.96 3.96 0 0 0-3.961 3.961 3.963 3.963 0 0 0 2.612 3.725 6.747 6.747 0 0 0-5.348 6.624h13.394a6.8 6.8 0 0 0-.2-1.626 6.759 6.759 0 0 0-3.047-4.169z" class="cls-3" data-name="路径 2669" transform="translate(-3540.45 725.666)"/>
        <g id="组_4778" data-name="组 4778" transform="translate(0 2.888)">
            <path id="路径_2670" d="M3546.534-716.862l.029-.062a4.721 4.721 0 0 1-1.562-3.5 4.686 4.686 0 0 1 .07-.775 3.128 3.128 0 0 0-1.323-.3 3.162 3.162 0 0 0-3.161 3.162 3.163 3.163 0 0 0 2.084 2.973 5.385 5.385 0 0 0-4.268 5.287h3.862a7.541 7.541 0 0 1 4.269-6.785z" class="cls-3" data-name="路径 2670" transform="translate(-3538.403 721.495)"/>
        </g>
    </g>
</svg>
